<mxfile host="app.diagrams.net" modified="2021-03-25T12:58:00.029Z" agent="5.0 (Windows NT 10.0; Win64; x64) AppleWebKit/537.36 (KHTML, like Gecko) Chrome/89.0.4389.90 Safari/537.36" etag="O9DVD9eXeQblsySKI6CV" version="14.5.1" type="github">
  <diagram id="4_WKKK0WGrJZnGHoQeTP" name="Page-1">
    <mxGraphModel dx="1504" dy="363" grid="1" gridSize="10" guides="1" tooltips="1" connect="1" arrows="1" fold="1" page="1" pageScale="1" pageWidth="827" pageHeight="1169" math="0" shadow="0">
      <root>
        <mxCell id="0" />
        <mxCell id="1" parent="0" />
        <mxCell id="3676tgq8OUo9cAoLlgZ6-13" value="" style="rounded=0;whiteSpace=wrap;html=1;fillColor=none;dashed=1;movable=0;resizable=0;rotatable=0;deletable=0;editable=0;connectable=0;" vertex="1" parent="1">
          <mxGeometry x="-500" y="140" width="1070" height="190" as="geometry" />
        </mxCell>
        <mxCell id="3676tgq8OUo9cAoLlgZ6-24" value="" style="rounded=0;whiteSpace=wrap;html=1;fillColor=none;movable=1;resizable=1;rotatable=1;deletable=1;editable=1;connectable=1;" vertex="1" parent="1">
          <mxGeometry x="-300" y="150" width="190" height="110" as="geometry" />
        </mxCell>
        <mxCell id="3676tgq8OUo9cAoLlgZ6-5" value="" style="edgeStyle=orthogonalEdgeStyle;rounded=0;orthogonalLoop=1;jettySize=auto;html=1;" edge="1" parent="1" source="3676tgq8OUo9cAoLlgZ6-1" target="3676tgq8OUo9cAoLlgZ6-4">
          <mxGeometry relative="1" as="geometry" />
        </mxCell>
        <mxCell id="3676tgq8OUo9cAoLlgZ6-1" value="Golang server" style="rounded=0;whiteSpace=wrap;html=1;" vertex="1" parent="1">
          <mxGeometry x="170" y="180" width="120" height="60" as="geometry" />
        </mxCell>
        <mxCell id="3676tgq8OUo9cAoLlgZ6-12" style="edgeStyle=orthogonalEdgeStyle;rounded=0;orthogonalLoop=1;jettySize=auto;html=1;entryX=0.5;entryY=1;entryDx=0;entryDy=0;" edge="1" parent="1" source="3676tgq8OUo9cAoLlgZ6-2" target="3676tgq8OUo9cAoLlgZ6-1">
          <mxGeometry relative="1" as="geometry" />
        </mxCell>
        <mxCell id="3676tgq8OUo9cAoLlgZ6-2" value="Javascript" style="rounded=0;whiteSpace=wrap;html=1;" vertex="1" parent="1">
          <mxGeometry x="170" y="360" width="120" height="60" as="geometry" />
        </mxCell>
        <mxCell id="3676tgq8OUo9cAoLlgZ6-16" value="" style="edgeStyle=orthogonalEdgeStyle;rounded=0;orthogonalLoop=1;jettySize=auto;html=1;entryX=0;entryY=0.5;entryDx=0;entryDy=0;" edge="1" parent="1" source="3676tgq8OUo9cAoLlgZ6-3" target="3676tgq8OUo9cAoLlgZ6-24">
          <mxGeometry relative="1" as="geometry" />
        </mxCell>
        <mxCell id="3676tgq8OUo9cAoLlgZ6-3" value="IP camera" style="rounded=0;whiteSpace=wrap;html=1;" vertex="1" parent="1">
          <mxGeometry x="-480" y="182.5" width="120" height="60" as="geometry" />
        </mxCell>
        <mxCell id="3676tgq8OUo9cAoLlgZ6-4" value="WebRTC" style="rounded=0;whiteSpace=wrap;html=1;" vertex="1" parent="1">
          <mxGeometry x="400" y="180" width="120" height="60" as="geometry" />
        </mxCell>
        <mxCell id="3676tgq8OUo9cAoLlgZ6-11" style="edgeStyle=orthogonalEdgeStyle;rounded=0;orthogonalLoop=1;jettySize=auto;html=1;entryX=0.5;entryY=1;entryDx=0;entryDy=0;" edge="1" parent="1" source="3676tgq8OUo9cAoLlgZ6-10" target="3676tgq8OUo9cAoLlgZ6-4">
          <mxGeometry relative="1" as="geometry" />
        </mxCell>
        <mxCell id="3676tgq8OUo9cAoLlgZ6-10" value="HTTP" style="rounded=0;whiteSpace=wrap;html=1;" vertex="1" parent="1">
          <mxGeometry x="400" y="370" width="120" height="60" as="geometry" />
        </mxCell>
        <mxCell id="3676tgq8OUo9cAoLlgZ6-14" value="TCP / IP" style="text;html=1;align=center;verticalAlign=middle;resizable=0;points=[];autosize=1;" vertex="1" parent="1">
          <mxGeometry x="-260" y="110" width="60" height="20" as="geometry" />
        </mxCell>
        <mxCell id="3676tgq8OUo9cAoLlgZ6-15" value="RTP" style="rounded=0;whiteSpace=wrap;html=1;align=left;horizontal=1;verticalAlign=top;" vertex="1" parent="1">
          <mxGeometry x="-270" y="180" width="120" height="60" as="geometry" />
        </mxCell>
        <mxCell id="3676tgq8OUo9cAoLlgZ6-22" style="edgeStyle=orthogonalEdgeStyle;rounded=0;orthogonalLoop=1;jettySize=auto;html=1;" edge="1" parent="1" source="3676tgq8OUo9cAoLlgZ6-18" target="3676tgq8OUo9cAoLlgZ6-19">
          <mxGeometry relative="1" as="geometry" />
        </mxCell>
        <mxCell id="3676tgq8OUo9cAoLlgZ6-18" value="IP kamera" style="rounded=0;whiteSpace=wrap;html=1;" vertex="1" parent="1">
          <mxGeometry x="-440" y="480" width="120" height="60" as="geometry" />
        </mxCell>
        <mxCell id="3676tgq8OUo9cAoLlgZ6-23" style="edgeStyle=orthogonalEdgeStyle;rounded=0;orthogonalLoop=1;jettySize=auto;html=1;entryX=0;entryY=0.5;entryDx=0;entryDy=0;" edge="1" parent="1" source="3676tgq8OUo9cAoLlgZ6-19" target="3676tgq8OUo9cAoLlgZ6-21">
          <mxGeometry relative="1" as="geometry" />
        </mxCell>
        <mxCell id="3676tgq8OUo9cAoLlgZ6-19" value="Switch" style="whiteSpace=wrap;html=1;fillColor=#ffffff;" vertex="1" parent="1">
          <mxGeometry x="-240" y="480" width="120" height="60" as="geometry" />
        </mxCell>
        <mxCell id="3676tgq8OUo9cAoLlgZ6-21" value="PC pÃ¥ land" style="whiteSpace=wrap;html=1;fillColor=#ffffff;" vertex="1" parent="1">
          <mxGeometry x="-30" y="480" width="120" height="60" as="geometry" />
        </mxCell>
        <mxCell id="3676tgq8OUo9cAoLlgZ6-25" value="RTSP" style="text;html=1;align=center;verticalAlign=middle;resizable=0;points=[];autosize=1;" vertex="1" parent="1">
          <mxGeometry x="-300" y="150" width="50" height="20" as="geometry" />
        </mxCell>
      </root>
    </mxGraphModel>
  </diagram>
</mxfile>
